<?xml version="1.0" encoding="utf-8"?>
<!-- Generator: Adobe Illustrator 16.0.0, SVG Export Plug-In . SVG Version: 6.00 Build 0)  -->
<!DOCTYPE svg PUBLIC "-//W3C//DTD SVG 1.1//EN" "http://www.w3.org/Graphics/SVG/1.1/DTD/svg11.dtd">
<svg version="1.1" id="Layer_1" xmlns="http://www.w3.org/2000/svg" xmlns:xlink="http://www.w3.org/1999/xlink" x="0px" y="0px"
	 width="103.167px" height="64px" viewBox="4.417 0 103.167 64" enable-background="new 4.417 0 103.167 64" xml:space="preserve">
<g>
	<g>
		<path fill="#FAFAFA" d="M15.854,15.024L4.417,21.569v13.01l11.438-6.553V15.024z M15.854,0.356L8.91,4.333
			c-2.776,1.588-4.491,4.539-4.494,7.736v8.516l11.438-6.545V0.354V0.356z M15.854,29.03L4.417,35.595v13.352l11.438-6.551V29.03z
			 M8.91,59.668l6.944,3.978V43.392L4.417,49.933v1.992C4.417,55.125,6.132,58.079,8.91,59.668L8.91,59.668z M28.007,14.497
			L16.569,7.925v13.188l11.438,6.559V14.497z M28.007,12.071c-0.003-3.197-1.718-6.15-4.495-7.736l-6.943-3.979v6.553l11.438,6.596
			V12.071z M28.007,51.931V35.72l-11.438-6.521v20.27l10.672,6.071C27.748,54.403,28.008,53.173,28.007,51.931z M23.512,59.667
			c1.396-0.801,2.55-1.965,3.34-3.367l-10.283-5.841v13.187L23.512,59.667z M28.007,28.669l-11.438-6.561v6.1l11.438,6.488V28.669z"
			/>
	</g>
	<g>
		<path fill="#FFFFFF" d="M43.282,19.455c0.457,0,0.842-0.094,1.154-0.28s0.565-0.43,0.757-0.729
			c0.19-0.298,0.326-0.641,0.405-1.028s0.119-0.786,0.119-1.197v-5.068h1.918v5.068c0,0.682-0.082,1.321-0.245,1.918
			c-0.163,0.598-0.42,1.12-0.77,1.568c-0.351,0.447-0.801,0.803-1.352,1.063c-0.551,0.262-1.208,0.393-1.974,0.393
			c-0.793,0-1.468-0.138-2.023-0.413c-0.555-0.275-1.006-0.64-1.351-1.092c-0.346-0.453-0.595-0.978-0.749-1.575
			s-0.23-1.218-0.23-1.862v-5.068h1.932v5.068c0,0.42,0.039,0.824,0.119,1.211c0.079,0.388,0.214,0.73,0.405,1.029
			s0.441,0.539,0.749,0.721C42.456,19.364,42.833,19.455,43.282,19.455z"/>
		<path fill="#FFFFFF" d="M49.582,21.093v-9.94h4.396c0.458,0,0.88,0.097,1.268,0.287c0.387,0.191,0.721,0.443,1.001,0.756
			c0.28,0.313,0.499,0.668,0.659,1.064c0.158,0.396,0.236,0.796,0.236,1.197c0,0.644-0.16,1.229-0.482,1.757
			c-0.322,0.527-0.758,0.908-1.309,1.141l2.268,3.738h-2.169l-2.03-3.332h-1.904v3.332H49.582z M51.513,16.066h2.422
			c0.178,0,0.344-0.042,0.497-0.126c0.154-0.084,0.287-0.198,0.399-0.343s0.2-0.314,0.266-0.511s0.099-0.406,0.099-0.63
			c0-0.233-0.038-0.448-0.112-0.645c-0.075-0.195-0.175-0.366-0.301-0.511s-0.271-0.257-0.435-0.336s-0.329-0.119-0.497-0.119
			h-2.338V16.066z"/>
		<path fill="#FFFFFF" d="M66.898,18.531c0,0.42-0.084,0.788-0.252,1.105s-0.398,0.583-0.693,0.798
			c-0.293,0.215-0.635,0.378-1.021,0.49s-0.801,0.168-1.238,0.168h-4.803v-9.94h5.32c0.346,0,0.658,0.075,0.938,0.225
			c0.281,0.149,0.518,0.343,0.715,0.581c0.195,0.237,0.348,0.509,0.455,0.812c0.107,0.304,0.16,0.609,0.16,0.917
			c0,0.485-0.121,0.94-0.363,1.365s-0.598,0.74-1.064,0.945c0.57,0.168,1.02,0.469,1.352,0.902
			C66.732,17.334,66.898,17.878,66.898,18.531z M60.822,12.805v2.506h2.576c0.326,0,0.605-0.111,0.834-0.336
			c0.229-0.224,0.342-0.532,0.342-0.924c0-0.383-0.104-0.686-0.314-0.91c-0.209-0.224-0.469-0.336-0.777-0.336H60.822z
			 M64.953,18.167c0-0.178-0.031-0.348-0.092-0.511c-0.061-0.164-0.143-0.306-0.244-0.428c-0.104-0.121-0.225-0.217-0.363-0.287
			c-0.141-0.069-0.295-0.104-0.463-0.104h-2.969v2.618h2.871c0.178,0,0.342-0.033,0.496-0.099c0.154-0.064,0.287-0.156,0.4-0.272
			c0.111-0.117,0.199-0.255,0.266-0.413C64.92,18.512,64.953,18.344,64.953,18.167z"/>
		<path fill="#FFFFFF" d="M71.029,11.152h1.709l3.779,9.94h-1.988l-0.924-2.478h-3.473l-0.91,2.478h-1.986L71.029,11.152z
			 M73.256,17.257l-1.373-3.906l-1.428,3.906H73.256z"/>
		<path fill="#FFFFFF" d="M79.541,14.723v6.37h-1.932v-9.94h1.498l5.18,6.524v-6.51h1.932v9.926H84.65L79.541,14.723z"/>
		<path fill="#FFFFFF" d="M39.082,37.893v-9.94h1.932v8.246h5.068v1.694H39.082z"/>
		<path fill="#FFFFFF" d="M47.257,37.893v-9.94h1.932v9.94H47.257z"/>
		<path fill="#FFFFFF" d="M52.283,27.952l2.688,7.519l2.66-7.519h2.029l-3.877,9.94h-1.624l-3.905-9.94H52.283z"/>
		<path fill="#FFFFFF" d="M60.725,37.893v-9.94h1.932v9.94H60.725z"/>
		<path fill="#FFFFFF" d="M66.66,31.522v6.37h-1.932v-9.94h1.498l5.18,6.524v-6.51h1.934v9.926h-1.568L66.66,31.522z"/>
		<path fill="#FFFFFF" d="M82.314,36.772c-0.795,0.794-1.719,1.19-2.773,1.19c-0.652,0-1.266-0.131-1.84-0.393
			c-0.574-0.261-1.074-0.62-1.498-1.078c-0.426-0.457-0.762-0.996-1.008-1.616c-0.248-0.621-0.371-1.291-0.371-2.01
			c0-0.681,0.123-1.322,0.371-1.925c0.246-0.602,0.588-1.129,1.021-1.582c0.434-0.452,0.945-0.812,1.533-1.078
			c0.588-0.266,1.227-0.398,1.918-0.398c0.934,0,1.732,0.195,2.4,0.588c0.668,0.392,1.17,0.919,1.506,1.582l-1.443,1.063
			c-0.252-0.494-0.604-0.872-1.057-1.134c-0.453-0.261-0.945-0.392-1.477-0.392c-0.42,0-0.805,0.089-1.154,0.266
			c-0.352,0.178-0.65,0.42-0.896,0.729c-0.248,0.308-0.439,0.662-0.574,1.063s-0.203,0.826-0.203,1.274
			c0,0.467,0.074,0.902,0.225,1.309c0.148,0.406,0.354,0.759,0.615,1.058c0.262,0.298,0.572,0.534,0.932,0.706
			c0.359,0.173,0.748,0.26,1.168,0.26c0.961,0,1.83-0.453,2.605-1.358v-0.7h-2.004v-1.414h3.6v5.11h-1.596V36.772z"/>
		<path fill="#FFFFFF" d="M91.482,30.557c-0.064-0.065-0.184-0.154-0.357-0.266c-0.172-0.112-0.383-0.222-0.629-0.329
			c-0.248-0.107-0.516-0.198-0.805-0.273c-0.289-0.074-0.584-0.112-0.883-0.112c-0.531,0-0.928,0.099-1.189,0.294
			c-0.262,0.196-0.393,0.472-0.393,0.826c0,0.206,0.049,0.376,0.146,0.512c0.1,0.135,0.24,0.254,0.428,0.356s0.422,0.196,0.707,0.28
			s0.613,0.173,0.986,0.266c0.486,0.131,0.928,0.271,1.324,0.42c0.396,0.149,0.732,0.336,1.008,0.561
			c0.275,0.224,0.488,0.492,0.637,0.805s0.225,0.698,0.225,1.155c0,0.532-0.102,0.986-0.301,1.365
			c-0.201,0.378-0.473,0.684-0.813,0.917c-0.342,0.233-0.732,0.403-1.176,0.511s-0.908,0.161-1.393,0.161
			c-0.748,0-1.484-0.112-2.213-0.336c-0.729-0.225-1.381-0.542-1.961-0.952l0.855-1.666c0.084,0.084,0.234,0.193,0.455,0.329
			c0.219,0.135,0.477,0.271,0.775,0.405c0.299,0.136,0.631,0.25,0.994,0.344c0.365,0.093,0.738,0.14,1.121,0.14
			c1.064,0,1.596-0.341,1.596-1.022c0-0.214-0.061-0.396-0.182-0.546c-0.121-0.148-0.295-0.279-0.518-0.392
			c-0.225-0.112-0.496-0.215-0.813-0.308c-0.318-0.094-0.672-0.196-1.064-0.309c-0.477-0.131-0.889-0.272-1.238-0.427
			s-0.643-0.336-0.875-0.546c-0.234-0.21-0.408-0.453-0.525-0.729c-0.117-0.274-0.176-0.604-0.176-0.986
			c0-0.504,0.094-0.952,0.281-1.345c0.186-0.392,0.445-0.718,0.777-0.979c0.33-0.262,0.715-0.46,1.154-0.595
			c0.438-0.136,0.91-0.203,1.414-0.203c0.699,0,1.344,0.109,1.932,0.329c0.588,0.219,1.102,0.479,1.539,0.776L91.482,30.557z"/>
		<path fill="#FFFFFF" d="M39.082,54.692v-9.94h4.214c0.457,0,0.88,0.097,1.267,0.287c0.388,0.191,0.722,0.443,1.001,0.756
			c0.28,0.313,0.5,0.668,0.658,1.064c0.159,0.396,0.238,0.796,0.238,1.197c0,0.42-0.075,0.828-0.224,1.225
			c-0.149,0.396-0.359,0.749-0.631,1.058c-0.271,0.308-0.597,0.555-0.979,0.741c-0.383,0.188-0.803,0.28-1.26,0.28h-2.353v3.332
			H39.082z M41.013,49.666h2.24c0.354,0,0.651-0.145,0.889-0.434c0.238-0.289,0.357-0.682,0.357-1.176
			c0-0.252-0.037-0.479-0.112-0.68c-0.074-0.2-0.173-0.37-0.294-0.511c-0.121-0.14-0.264-0.245-0.427-0.314
			c-0.163-0.07-0.329-0.105-0.497-0.105h-2.156V49.666z"/>
		<path fill="#FFFFFF" d="M47.803,54.692v-9.94h4.396c0.458,0,0.88,0.097,1.268,0.287c0.387,0.191,0.721,0.443,1.001,0.756
			c0.28,0.313,0.499,0.668,0.658,1.064c0.158,0.396,0.237,0.796,0.237,1.197c0,0.644-0.161,1.229-0.482,1.757
			c-0.322,0.527-0.759,0.908-1.31,1.141l2.269,3.738h-2.17l-2.03-3.332h-1.904v3.332H47.803z M49.735,49.666h2.422
			c0.178,0,0.344-0.042,0.497-0.126c0.154-0.084,0.287-0.198,0.399-0.343s0.2-0.314,0.266-0.511s0.099-0.406,0.099-0.63
			c0-0.233-0.038-0.448-0.112-0.645c-0.075-0.195-0.175-0.366-0.301-0.511s-0.271-0.257-0.435-0.336s-0.329-0.119-0.497-0.119
			h-2.338V49.666z"/>
		<path fill="#FFFFFF" d="M61.355,54.763c-0.729,0-1.389-0.143-1.982-0.428c-0.592-0.284-1.102-0.662-1.525-1.134
			c-0.426-0.471-0.754-1.01-0.986-1.617c-0.234-0.606-0.352-1.227-0.352-1.861c0-0.663,0.125-1.298,0.371-1.904
			c0.248-0.606,0.588-1.144,1.023-1.61c0.434-0.466,0.949-0.837,1.547-1.112c0.596-0.275,1.246-0.413,1.945-0.413
			c0.719,0,1.375,0.146,1.967,0.44c0.594,0.294,1.1,0.68,1.52,1.155s0.746,1.018,0.98,1.624c0.232,0.606,0.35,1.223,0.35,1.848
			c0,0.663-0.121,1.295-0.363,1.897c-0.244,0.602-0.58,1.134-1.01,1.596c-0.428,0.462-0.941,0.831-1.539,1.106
			S62.055,54.763,61.355,54.763z M58.471,49.723c0,0.429,0.064,0.845,0.195,1.246s0.32,0.756,0.568,1.063
			c0.246,0.309,0.551,0.556,0.91,0.742c0.357,0.187,0.768,0.28,1.225,0.28c0.467,0,0.879-0.096,1.238-0.287s0.662-0.445,0.91-0.764
			c0.248-0.316,0.434-0.674,0.561-1.07c0.125-0.396,0.189-0.801,0.189-1.211c0-0.43-0.068-0.845-0.203-1.246
			c-0.137-0.401-0.328-0.756-0.574-1.064c-0.248-0.308-0.551-0.553-0.91-0.734c-0.359-0.183-0.764-0.273-1.211-0.273
			c-0.467,0-0.883,0.096-1.246,0.287c-0.365,0.191-0.668,0.443-0.91,0.756s-0.428,0.668-0.553,1.064
			C58.533,48.908,58.471,49.312,58.471,49.723z"/>
		<path fill="#FFFFFF" d="M66.703,52.662c0.131,0.094,0.35,0.196,0.658,0.309c0.309,0.111,0.662,0.168,1.064,0.168
			c0.393,0,0.705-0.068,0.938-0.203c0.232-0.136,0.41-0.343,0.531-0.623s0.201-0.628,0.238-1.043s0.057-0.903,0.057-1.463v-5.055
			h1.932v5.055c0,0.756-0.039,1.444-0.119,2.064c-0.078,0.621-0.246,1.15-0.504,1.589c-0.256,0.439-0.627,0.78-1.113,1.022
			c-0.484,0.242-1.139,0.364-1.959,0.364c-0.84,0-1.559-0.205-2.156-0.616L66.703,52.662z"/>
		<path fill="#FFFFFF" d="M80.984,52.998v1.694h-6.902v-9.94h6.775v1.694h-4.844v2.395h4.186v1.567h-4.186v2.59H80.984z"/>
		<path fill="#FFFFFF" d="M81.684,49.652c0-0.606,0.109-1.206,0.328-1.799c0.221-0.593,0.539-1.122,0.959-1.589
			s0.934-0.845,1.541-1.134c0.605-0.29,1.297-0.435,2.072-0.435c0.914,0,1.705,0.201,2.373,0.603
			c0.666,0.401,1.164,0.924,1.49,1.567l-1.484,1.022c-0.131-0.28-0.289-0.516-0.475-0.707c-0.188-0.191-0.389-0.343-0.604-0.455
			s-0.438-0.193-0.672-0.245c-0.232-0.051-0.461-0.077-0.686-0.077c-0.484,0-0.908,0.098-1.268,0.294s-0.658,0.45-0.895,0.763
			c-0.238,0.313-0.418,0.668-0.539,1.064s-0.184,0.791-0.184,1.183c0,0.439,0.07,0.861,0.211,1.268s0.338,0.763,0.596,1.07
			c0.256,0.309,0.564,0.556,0.924,0.742c0.359,0.188,0.754,0.28,1.182,0.28c0.225,0,0.459-0.028,0.701-0.084
			s0.473-0.145,0.693-0.266c0.219-0.121,0.422-0.278,0.607-0.47c0.188-0.19,0.336-0.422,0.449-0.692l1.582,0.91
			c-0.16,0.373-0.385,0.702-0.68,0.986c-0.293,0.285-0.625,0.525-0.994,0.722c-0.369,0.195-0.762,0.345-1.182,0.447
			c-0.422,0.103-0.832,0.154-1.232,0.154c-0.709,0-1.359-0.149-1.947-0.448c-0.588-0.298-1.094-0.688-1.518-1.169
			c-0.426-0.48-0.756-1.026-0.994-1.638S81.684,50.287,81.684,49.652z"/>
		<path fill="#FFFFFF" d="M99.225,46.446h-3.178v8.246h-1.918v-8.246h-3.178v-1.694h8.273V46.446z"/>
		<path fill="#FFFFFF" d="M106.379,47.356c-0.064-0.065-0.184-0.154-0.357-0.266c-0.172-0.112-0.383-0.222-0.629-0.329
			c-0.248-0.107-0.516-0.198-0.805-0.273c-0.289-0.074-0.584-0.112-0.883-0.112c-0.531,0-0.928,0.099-1.189,0.294
			c-0.262,0.196-0.393,0.472-0.393,0.826c0,0.206,0.049,0.376,0.146,0.512c0.1,0.135,0.24,0.254,0.428,0.356s0.422,0.196,0.707,0.28
			s0.613,0.173,0.986,0.266c0.486,0.131,0.928,0.271,1.324,0.42c0.396,0.149,0.732,0.336,1.008,0.561
			c0.275,0.224,0.488,0.492,0.637,0.805s0.225,0.698,0.225,1.155c0,0.532-0.102,0.986-0.301,1.365
			c-0.201,0.378-0.473,0.684-0.813,0.917c-0.342,0.233-0.732,0.403-1.176,0.511s-0.908,0.161-1.393,0.161
			c-0.748,0-1.484-0.112-2.213-0.336c-0.729-0.225-1.381-0.542-1.961-0.952l0.855-1.666c0.084,0.084,0.234,0.193,0.455,0.329
			c0.219,0.135,0.477,0.271,0.775,0.405c0.299,0.136,0.631,0.25,0.994,0.344c0.365,0.093,0.738,0.14,1.121,0.14
			c1.064,0,1.596-0.341,1.596-1.022c0-0.214-0.061-0.396-0.182-0.546c-0.121-0.148-0.295-0.279-0.518-0.392
			c-0.225-0.112-0.496-0.215-0.813-0.308c-0.318-0.094-0.672-0.196-1.064-0.309c-0.477-0.131-0.889-0.272-1.238-0.427
			s-0.643-0.336-0.875-0.546c-0.234-0.21-0.408-0.453-0.525-0.729c-0.117-0.274-0.176-0.604-0.176-0.986
			c0-0.504,0.094-0.952,0.281-1.345c0.186-0.392,0.445-0.718,0.777-0.979c0.33-0.262,0.715-0.46,1.154-0.595
			c0.438-0.136,0.91-0.203,1.414-0.203c0.699,0,1.344,0.109,1.932,0.329c0.588,0.219,1.102,0.479,1.539,0.776L106.379,47.356z"/>
	</g>
</g>
</svg>
